<svg width="151" height="142" viewBox="0 0 151 142" fill="none" xmlns="http://www.w3.org/2000/svg">
<path d="M1 26.4639L138.16 21.2705V25.017L1 29.3944V26.4639Z" fill="#E5E5E5"/>
<path d="M50.8477 32.2336L28.4478 28.4083L138.121 25.0562L149.636 32.628L50.8477 32.2336Z" fill="white" stroke="#B3B3AF" stroke-width="0.5"/>
<path d="M50.8477 114.065L28.4478 124.121L138.121 135.676L149.479 121.361L50.8477 114.065Z" fill="white" stroke="#B3B3AF" stroke-width="0.5"/>
<path d="M138.161 25.0563V21.231L149.676 29.5915V32.6281L138.161 25.0563Z" fill="#E5E5E5"/>
<path d="M149.676 32.6674L138.121 25.0562V135.715L149.557 121.36L149.676 32.6674Z" fill="white" stroke="#B3B3AF" stroke-width="0.5"/>
<path d="M28.4084 28.4082V124.16L1 121.163V29.1575L28.4084 28.4082Z" fill="white" stroke="#B3B3AF" stroke-width="0.5"/>
<path d="M138.121 141V135.715L1 121.203V125.698L138.121 141Z" fill="#E5E5E5" stroke="#B3B3AF" stroke-width="0.5"/>
<path d="M28.4478 124.16V28.4082L50.8477 32.2336V114.064L28.4478 124.16Z" fill="#FFFDF0" stroke="#B3B3AF" stroke-width="0.5"/>
<path d="M138.121 135.715V141L149.557 125.974V121.36L138.121 135.715Z" fill="#E5E5E5"/>
<path d="M1 8.92676V26.3183L138.16 21.2704L138.555 1L1 8.92676Z" fill="white"/>
<path d="M1 8.92676V26.3183L138.16 21.2704L138.555 1L1 8.92676Z" fill="#FCEA6A" fill-opacity="0.1"/>
<path d="M1 8.92676V26.3183L138.16 21.2704L138.555 1L1 8.92676Z" stroke="#B3B3AF" stroke-width="0.5"/>
<path d="M149.676 11.6873L138.555 1L138.2 21.231L149.676 29.5915V11.6873Z" fill="white" stroke="#B3B3AF" stroke-width="0.5"/>
<path d="M138.082 135.715L127.631 134.611V25.3716L138.082 25.0562V135.715Z" fill="white" stroke="#B3B3AF" stroke-width="0.5"/>
<path d="M23.618 10.0901L23.5576 10.1529L26.7582 20.7847L28.6454 20.7106L30.2004 15.6787C30.3967 15.0666 30.5929 14.3337 30.8043 13.5095L30.8496 13.5077C31.0459 14.3159 31.2572 15.0479 31.4384 15.6451L32.9783 20.5403L34.8655 20.4662L38.0661 9.58291L38.0208 9.52425L35.7411 9.61382L34.3522 14.9565C34.171 15.704 33.9596 16.5584 33.7785 17.4116L33.7332 17.4134C33.5067 16.5762 33.2954 15.8139 33.0538 15.0528L31.4535 9.85783L30.1853 9.90765L28.5548 15.2296C28.3284 16.0091 28.1019 16.7885 27.8905 17.6429L27.8452 17.6447C27.6641 16.8057 27.4527 15.9679 27.2715 15.2347L25.8826 10.0012L23.618 10.0901Z" fill="#E05030"/>
<path d="M42.0456 20.3654C44.431 20.2717 46.0162 18.5172 46.0162 16.1904C46.0162 13.8939 44.4159 12.2192 42.0456 12.3124C39.6754 12.4055 38.0901 14.2053 38.0901 16.5018C38.0901 18.8286 39.6754 20.4585 42.0456 20.3654ZM42.0456 18.6279C40.8227 18.6759 40.0981 17.7676 40.0981 16.4229C40.0981 15.0783 40.8227 14.0979 42.0456 14.0499C43.2685 14.0018 44.0083 14.9246 44.0083 16.2693C44.0083 17.614 43.2685 18.5798 42.0456 18.6279Z" fill="#E05030"/>
<path d="M52.348 11.9076C51.2459 11.9509 50.34 12.5606 49.6003 13.4207L49.5097 12.3213L47.7282 12.3913V19.84L49.7361 19.7611V14.7147C50.3098 14.118 50.9741 13.684 51.6082 13.6591C52.348 13.63 52.7103 14.0841 52.7103 15.1417V19.6442L54.7182 19.5653V14.67C54.7182 12.8267 53.8426 11.8488 52.348 11.9076Z" fill="#E05030"/>
<path d="M61.8354 12.1694C61.2315 11.8003 60.5069 11.587 59.8124 11.6143C57.9101 11.689 56.4608 13.4382 56.4608 15.8254C56.4608 18.273 57.7139 19.7498 59.5859 19.6762C60.4314 19.643 61.2315 19.2339 61.9713 18.5702L62.0619 19.2768L63.8434 19.2068V8.10174L61.8354 8.18063V12.1694ZM58.4536 15.7471C58.4536 14.2966 59.2387 13.3592 60.3861 13.3142C60.8843 13.2946 61.3221 13.3832 61.8354 13.6349V17.2158C61.3221 17.6892 60.7937 17.9366 60.2502 17.9579C59.1179 18.0024 58.4536 17.1522 58.4536 15.7471Z" fill="#E05030"/>
<path d="M72.7136 15.0508C72.7136 12.6636 71.4303 11.1578 69.2261 11.2444C66.9917 11.3322 65.5424 13.0814 65.5424 15.4383C65.5424 17.7953 66.9162 19.3882 69.3469 19.2927C70.4188 19.2506 71.5209 18.8447 72.2758 18.3164L72.0644 16.7081L71.9889 16.7111C71.2643 17.3741 70.3282 17.6677 69.5281 17.6992C68.426 17.7425 67.6711 17.0469 67.5956 15.8563L72.6985 15.6558C72.7136 15.4134 72.7136 15.3228 72.7136 15.0508ZM67.6107 14.5865C67.7315 13.4637 68.3958 12.7577 69.2865 12.7227C70.1923 12.6871 70.766 13.3294 70.8264 14.4753L67.6107 14.5865Z" fill="#E05030"/>
<path d="M78.7913 10.9139C77.7798 10.9537 77.0551 11.6016 76.3455 12.6418L76.2248 11.2716L74.4433 11.3416V18.7903L76.4512 18.7114V14.1939C77.0249 13.3857 77.6892 13.012 78.3837 12.9848C78.5648 12.9776 78.6856 12.988 78.8215 13.0129L78.9272 12.9634L79.063 10.9335C78.9725 10.9068 78.897 10.9098 78.7913 10.9139Z" fill="#E05030"/>
<path d="M84.5991 10.6404C83.7386 10.6742 82.863 11.1468 82.1383 11.8401L82.0779 11.0417L80.2964 11.1117V21.8843L82.3044 21.8054V18.1188C82.9083 18.5333 83.6178 18.732 84.3425 18.7035C86.29 18.627 87.6941 16.8646 87.6941 14.4774C87.6941 12.0599 86.4863 10.5663 84.5991 10.6404ZM83.7688 17.0188C83.2555 17.039 82.8328 16.9347 82.3044 16.6835V13.0876C82.8177 12.6444 83.3763 12.3807 83.95 12.3581C85.037 12.3154 85.7012 13.1505 85.7012 14.5557C85.7012 15.991 84.9464 16.9725 83.7688 17.0188Z" fill="#E05030"/>
<path d="M92.9547 18.3652C95.34 18.2715 96.9252 16.517 96.9252 14.1902C96.9252 11.8936 95.3249 10.219 92.9547 10.3121C90.5844 10.4053 88.9992 12.2051 88.9992 14.5016C88.9992 16.8284 90.5844 18.4583 92.9547 18.3652ZM92.9547 16.6277C91.7318 16.6757 91.0071 15.7674 91.0071 14.4227C91.0071 13.078 91.7318 12.0977 92.9547 12.0497C94.1775 12.0016 94.9173 12.9244 94.9173 14.2691C94.9173 15.6138 94.1775 16.5796 92.9547 16.6277Z" fill="#E05030"/>
<path d="M100.827 18.0559C102.639 17.9847 103.741 17.0348 103.741 15.6901C103.741 14.6023 103.228 13.9728 101.552 13.3285C100.254 12.8356 100.088 12.5853 100.088 12.1924C100.088 11.8147 100.405 11.5001 101.009 11.4764C101.597 11.4532 102.382 11.649 103.183 12.2219L103.258 12.219L103.485 10.5934C102.699 10.171 101.748 9.96663 100.888 10.0004C99.1818 10.0675 98.1703 11.044 98.1703 12.2073C98.1703 13.265 98.6534 13.9259 100.39 14.5376C101.612 14.973 101.824 15.282 101.824 15.7353C101.824 16.2339 101.446 16.5358 100.722 16.5642C100.042 16.5909 99.2875 16.4091 98.4269 15.7932L98.3514 15.7961L98.125 17.4368C98.9402 17.8883 99.9065 18.092 100.827 18.0559Z" fill="#E05030"/>
<path d="M112.108 13.503C112.108 11.1158 110.825 9.61001 108.621 9.69662C106.386 9.78441 104.937 11.5335 104.937 13.8905C104.937 16.2475 106.311 17.8404 108.741 17.7449C109.813 17.7028 110.915 17.2969 111.67 16.7686L111.459 15.1603L111.383 15.1633C110.659 15.8263 109.723 16.1199 108.922 16.1514C107.82 16.1947 107.066 15.4991 106.99 14.3085L112.093 14.108C112.108 13.8656 112.108 13.775 112.108 13.503ZM107.005 13.0387C107.126 11.9159 107.79 11.2099 108.681 11.1749C109.587 11.1393 110.16 11.7816 110.221 12.9275L107.005 13.0387Z" fill="#E05030"/>
<g filter="url(#filter0_f_36_117)">
<path d="M23.618 10.0901L23.5576 10.1529L26.7582 20.7847L28.6454 20.7106L30.2004 15.6787C30.3967 15.0666 30.5929 14.3337 30.8043 13.5095L30.8496 13.5077C31.0459 14.3159 31.2572 15.0479 31.4384 15.6451L32.9783 20.5403L34.8655 20.4662L38.0661 9.58291L38.0208 9.52425L35.7411 9.61382L34.3522 14.9565C34.171 15.704 33.9596 16.5584 33.7785 17.4116L33.7332 17.4134C33.5067 16.5762 33.2954 15.8139 33.0538 15.0528L31.4535 9.85783L30.1853 9.90765L28.5548 15.2296C28.3284 16.0091 28.1019 16.7885 27.8905 17.6429L27.8452 17.6447C27.6641 16.8057 27.4527 15.9679 27.2715 15.2347L25.8826 10.0012L23.618 10.0901Z" fill="#E05030" fill-opacity="0.6"/>
<path d="M42.0456 20.3654C44.431 20.2717 46.0162 18.5172 46.0162 16.1904C46.0162 13.8939 44.4159 12.2192 42.0456 12.3124C39.6754 12.4055 38.0901 14.2053 38.0901 16.5018C38.0901 18.8286 39.6754 20.4585 42.0456 20.3654ZM42.0456 18.6279C40.8227 18.6759 40.0981 17.7676 40.0981 16.4229C40.0981 15.0783 40.8227 14.0979 42.0456 14.0499C43.2685 14.0018 44.0083 14.9246 44.0083 16.2693C44.0083 17.614 43.2685 18.5798 42.0456 18.6279Z" fill="#E05030" fill-opacity="0.6"/>
<path d="M52.348 11.9076C51.2459 11.9509 50.34 12.5606 49.6003 13.4207L49.5097 12.3213L47.7282 12.3913V19.84L49.7361 19.7611V14.7147C50.3098 14.118 50.9741 13.684 51.6082 13.6591C52.348 13.63 52.7103 14.0841 52.7103 15.1417V19.6442L54.7182 19.5653V14.67C54.7182 12.8267 53.8426 11.8488 52.348 11.9076Z" fill="#E05030" fill-opacity="0.6"/>
<path d="M61.8354 12.1694C61.2315 11.8003 60.5069 11.587 59.8124 11.6143C57.9101 11.689 56.4608 13.4382 56.4608 15.8254C56.4608 18.273 57.7139 19.7498 59.5859 19.6762C60.4314 19.643 61.2315 19.2339 61.9713 18.5702L62.0619 19.2768L63.8434 19.2068V8.10174L61.8354 8.18063V12.1694ZM58.4536 15.7471C58.4536 14.2966 59.2387 13.3592 60.3861 13.3142C60.8843 13.2946 61.3221 13.3832 61.8354 13.6349V17.2158C61.3221 17.6892 60.7937 17.9366 60.2502 17.9579C59.1179 18.0024 58.4536 17.1522 58.4536 15.7471Z" fill="#E05030" fill-opacity="0.6"/>
<path d="M72.7136 15.0508C72.7136 12.6636 71.4303 11.1578 69.2261 11.2444C66.9917 11.3322 65.5424 13.0814 65.5424 15.4383C65.5424 17.7953 66.9162 19.3882 69.3469 19.2927C70.4188 19.2506 71.5209 18.8447 72.2758 18.3164L72.0644 16.7081L71.9889 16.7111C71.2643 17.3741 70.3282 17.6677 69.5281 17.6992C68.426 17.7425 67.6711 17.0469 67.5956 15.8563L72.6985 15.6558C72.7136 15.4134 72.7136 15.3228 72.7136 15.0508ZM67.6107 14.5865C67.7315 13.4637 68.3958 12.7577 69.2865 12.7227C70.1923 12.6871 70.766 13.3294 70.8264 14.4753L67.6107 14.5865Z" fill="#E05030" fill-opacity="0.6"/>
<path d="M78.7913 10.9139C77.7798 10.9537 77.0551 11.6016 76.3455 12.6418L76.2248 11.2716L74.4433 11.3416V18.7903L76.4512 18.7114V14.1939C77.0249 13.3857 77.6892 13.012 78.3837 12.9848C78.5648 12.9776 78.6856 12.988 78.8215 13.0129L78.9272 12.9634L79.063 10.9335C78.9725 10.9068 78.897 10.9098 78.7913 10.9139Z" fill="#E05030" fill-opacity="0.6"/>
<path d="M84.5991 10.6404C83.7386 10.6742 82.863 11.1468 82.1383 11.8401L82.0779 11.0417L80.2964 11.1117V21.8843L82.3044 21.8054V18.1188C82.9083 18.5333 83.6178 18.732 84.3425 18.7035C86.29 18.627 87.6941 16.8646 87.6941 14.4774C87.6941 12.0599 86.4863 10.5663 84.5991 10.6404ZM83.7688 17.0188C83.2555 17.039 82.8328 16.9347 82.3044 16.6835V13.0876C82.8177 12.6444 83.3763 12.3807 83.95 12.3581C85.037 12.3154 85.7012 13.1505 85.7012 14.5557C85.7012 15.991 84.9464 16.9725 83.7688 17.0188Z" fill="#E05030" fill-opacity="0.6"/>
<path d="M92.9547 18.3652C95.34 18.2715 96.9252 16.517 96.9252 14.1902C96.9252 11.8936 95.3249 10.219 92.9547 10.3121C90.5844 10.4053 88.9992 12.2051 88.9992 14.5016C88.9992 16.8284 90.5844 18.4583 92.9547 18.3652ZM92.9547 16.6277C91.7318 16.6757 91.0071 15.7674 91.0071 14.4227C91.0071 13.078 91.7318 12.0977 92.9547 12.0497C94.1775 12.0016 94.9173 12.9244 94.9173 14.2691C94.9173 15.6138 94.1775 16.5796 92.9547 16.6277Z" fill="#E05030" fill-opacity="0.6"/>
<path d="M100.827 18.0559C102.639 17.9847 103.741 17.0348 103.741 15.6901C103.741 14.6023 103.228 13.9728 101.552 13.3285C100.254 12.8356 100.088 12.5853 100.088 12.1924C100.088 11.8147 100.405 11.5001 101.009 11.4764C101.597 11.4532 102.382 11.649 103.183 12.2219L103.258 12.219L103.485 10.5934C102.699 10.171 101.748 9.96663 100.888 10.0004C99.1818 10.0675 98.1703 11.044 98.1703 12.2073C98.1703 13.265 98.6534 13.9259 100.39 14.5376C101.612 14.973 101.824 15.282 101.824 15.7353C101.824 16.2339 101.446 16.5358 100.722 16.5642C100.042 16.5909 99.2875 16.4091 98.4269 15.7932L98.3514 15.7961L98.125 17.4368C98.9402 17.8883 99.9065 18.092 100.827 18.0559Z" fill="#E05030" fill-opacity="0.6"/>
<path d="M112.108 13.503C112.108 11.1158 110.825 9.61001 108.621 9.69662C106.386 9.78441 104.937 11.5335 104.937 13.8905C104.937 16.2475 106.311 17.8404 108.741 17.7449C109.813 17.7028 110.915 17.2969 111.67 16.7686L111.459 15.1603L111.383 15.1633C110.659 15.8263 109.723 16.1199 108.922 16.1514C107.82 16.1947 107.066 15.4991 106.99 14.3085L112.093 14.108C112.108 13.8656 112.108 13.775 112.108 13.503ZM107.005 13.0387C107.126 11.9159 107.79 11.2099 108.681 11.1749C109.587 11.1393 110.16 11.7816 110.221 12.9275L107.005 13.0387Z" fill="#E05030" fill-opacity="0.6"/>
</g>
<defs>
<filter id="filter0_f_36_117" x="22.3093" y="6.85329" width="91.0468" height="16.2793" filterUnits="userSpaceOnUse" color-interpolation-filters="sRGB">
<feFlood flood-opacity="0" result="BackgroundImageFix"/>
<feBlend mode="normal" in="SourceGraphic" in2="BackgroundImageFix" result="shape"/>
<feGaussianBlur stdDeviation="0.624138" result="effect1_foregroundBlur_36_117"/>
</filter>
</defs>
</svg>
